+8_ID_stride2.mot
nRows=15
nColumns=38

name +8_ID_stride2.mot
datacolumns 38
datarows 15
range 0.5950000000 0.6650000000
endheader
time	pelvis_tilt_moment	pelvis_list_moment	pelvis_rotation_moment	pelvis_tx_force	pelvis_ty_force	pelvis_tz_force	hip_flexion_r_moment	hip_adduction_r_moment	hip_rotation_r_moment	knee_angle_r_moment	ankle_angle_r_moment	subtalar_angle_r_moment	mtp_angle_r_moment	hip_flexion_l_moment	hip_adduction_l_moment	hip_rotation_l_moment	knee_angle_l_moment	ankle_angle_l_moment	subtalar_angle_l_moment	mtp_angle_l_moment	lumbar_extension_moment	lumbar_bending_moment	lumbar_rotation_moment	arm_flex_r_moment	arm_add_r_moment	arm_rot_r_moment	elbow_flex_r_moment	pro_sup_r_moment	wrist_flex_r_moment	wrist_dev_r_moment	arm_flex_l_moment	arm_add_l_moment	arm_rot_l_moment	elbow_flex_l_moment	pro_sup_l_moment	wrist_flex_l_moment	wrist_dev_l_moment
        0.5950000000	      -25.8666643633	      -23.2821910684	      -33.5458976384	       81.1854362795	       89.3138957675	      197.6682798512	     -127.7467454226	      -19.6236882231	       -0.7900608686	      -60.8673092658	        4.9245349679	        1.3889390319	        0.0502331161	       88.5496448504	      -49.8429017877	       11.6152341136	       34.5430086086	        3.8662284830	       -1.2184419505	        0.1304862811	       19.7303515450	       -5.2972193195	      -13.3161655739	       -3.1872515199	       -3.0388504782	       -1.9244532941	        0.1365030048	       -0.0484621510	       -0.1716340724	       -0.0418618218	       -1.6641906073	        3.7248003523	        2.6655146570	       -0.1982481178	        0.0666496223	        0.2561062753	        0.0691612862	
        0.6000000000	        7.0884977719	       13.0796879339	      -28.4533912949	       38.7755332510	      243.9178202151	      200.6232746667	      -83.4729545616	      -23.1287271531	        4.4352750796	      -35.4147936098	       11.1959097962	        5.1079195249	        0.1341053724	       79.0491488351	      -43.5859741390	       13.0993985525	       33.1138033259	        4.2625270955	       -1.2671749933	        0.1796951964	       33.5910469749	      -19.4812003234	      -14.5606989922	       -4.4916034567	       -2.2605641621	       -1.5461698321	        0.6033889184	       -0.0486183557	       -0.1389077946	       -0.0643277180	       -2.8135375461	        3.1064658276	        2.6562169080	        0.2295830943	        0.0605924112	        0.2655804998	        0.0476089978	
        0.6050000000	       43.5101417503	       48.4851430122	      -17.9949490831	        0.0128111413	      349.2283898150	      170.4341173271	      -51.8957167581	      -34.6759333966	       12.8544122614	      -15.7837508358	       12.3717896000	       10.6913484071	        0.2154372846	       71.8983871291	      -35.5108886507	       13.6745805105	       31.1318788764	        4.6288487840	       -1.3060975632	        0.2250405525	       49.8002748194	      -34.1165575409	      -14.5350886899	       -5.1793098257	       -1.0111159216	       -0.8268517755	        1.3557780658	       -0.0447367338	       -0.0626150945	       -0.1104181328	       -3.7905945619	        2.1188378835	        2.2890655825	        0.9165044539	        0.0356703889	        0.2580515248	       -0.0152863552	
        0.6100000000	       72.7803533491	       65.6199947051	       -6.9830531220	      -26.4063949606	      406.2572772714	      117.7254644553	      -41.2839767894	      -46.6982488665	       21.9504666596	       -9.0140283774	       -0.6855468907	       15.9824987549	        0.2834626868	       68.3239295421	      -26.8629299155	       13.5350793267	       29.4231090518	        4.9345444050	       -1.3253699524	        0.2622206829	       62.6457855854	      -45.1544524686	      -12.0610998653	       -5.2796653007	        0.2426064104	       -0.0715219588	        2.1295418015	       -0.0390920105	        0.0207196725	       -0.1593865107	       -4.3761179147	        1.1346912695	        1.7567172937	        1.6229655152	        0.0062549201	        0.2253634742	       -0.0857599024	
        0.6150000000	       89.3932865439	       71.4348538877	        6.9619340145	      -26.4656051996	      369.6579480404	       44.3979955428	      -44.9426314027	      -57.3907276195	       32.1723588416	       -5.2344495125	      -18.1528495001	       22.4611996023	        0.3308449298	       68.4783727217	      -18.6464289120	       12.6045835007	       28.3143733245	        5.1447051355	       -1.3106364805	        0.2879593568	       67.8970918833	      -49.3716632027	       -8.2294362986	       -4.6388318864	        1.2356039453	        0.5727730764	        2.7436246998	       -0.0326132545	        0.0946471271	       -0.1981784400	       -4.4578388830	        0.3521257526	        1.1813605641	        2.1851196797	       -0.0218089421	        0.1801734362	       -0.1470340622	
        0.6200000000	       84.2191344486	       59.5765879577	       21.0167563312	      -10.3393860509	      261.8025484142	      -22.0997468479	      -63.9913875924	      -59.4423934262	       41.6651858472	       -5.5499896888	      -37.1933245590	       29.1109730015	        0.3442345147	       70.2541629674	      -11.6160296378	       11.1820451775	       28.1961992057	        5.1987649308	       -1.2652370469	        0.2986918992	       64.5377077509	      -46.1342312228	       -3.5811673579	       -3.5594061555	        1.7253953214	        1.0035582923	        3.0297943126	       -0.0259772824	        0.1465250131	       -0.2120054755	       -4.2378296823	       -0.0485274775	        0.6741720910	        2.4593273773	       -0.0429864261	        0.1302022885	       -0.1847470444	
        0.6250000000	       62.6917048171	       29.6241393188	       31.8420812741	       22.7739776527	       98.0838927416	      -49.3389388876	      -98.2149554464	      -56.1170563977	       43.3680263913	       -5.3408773048	      -53.4794006459	       34.5607355370	        0.3370038094	       72.5671466577	       -6.2935043671	        9.5195960594	       28.3857804354	        5.1590678731	       -1.1866859630	        0.2973917672	       54.8621446958	      -36.8374442979	        1.1521246216	       -2.3292324010	        1.7209732244	        1.1196938179	        3.0211601376	       -0.0202134652	        0.1679504193	       -0.2082011074	       -3.7944643404	       -0.0500467442	        0.3331169939	        2.4622556154	       -0.0534668303	        0.0852511061	       -0.1896733639	
        0.6300000000	       21.5738400636	       -9.9459069394	       38.3029940381	       60.2016238219	      -80.1297229865	      -57.9346918921	     -136.4194743441	      -42.1738247370	       43.0491143918	       -3.0723753763	      -66.0684768387	       38.3242058400	        0.3005158827	       73.9175997047	       -2.3773949370	        7.8036823304	       29.0439187956	        4.9685283825	       -1.0828440160	        0.2854777100	       40.7373987662	      -22.8764716934	        5.5155010007	       -1.1423012101	        1.4124092245	        1.1428883963	        2.8453766806	       -0.0163999465	        0.1754927137	       -0.1890708521	       -3.2944694877	        0.1958419207	        0.1266567863	        2.3360069111	       -0.0582497365	        0.0491451176	       -0.1854043044	
        0.6350000000	      -23.2657320946	      -42.9856480133	       39.0753681917	       91.5921839850	     -227.7362750983	      -39.4512490000	     -165.4450969215	      -25.2250447188	       34.8900666789	        8.2242812802	      -73.9628845883	       39.8002716089	        0.2491614962	       73.5411502654	        0.1085801738	        6.2247107067	       29.5190744219	        4.6981988464	       -0.9650781446	        0.2660742905	       27.8672383098	       -9.1776904056	        8.9900592983	       -0.1655774708	        0.9575697368	        1.0390172249	        2.6743090896	       -0.0158968791	        0.1719692807	       -0.1732074571	       -2.8433040188	        0.6052066076	        0.0520457009	        2.2274929726	       -0.0593669304	        0.0263595485	       -0.1772569848	
        0.6400000000	      -59.6121378898	      -52.7299117865	       37.1431714485	      110.9113371959	     -308.2176620959	      -25.6342084363	     -167.4858651074	      -10.7422069898	       24.4361311976	       29.3776987039	      -79.8013343733	       39.8038938186	        0.1915561824	       72.3989896881	        1.6462837588	        4.7822945101	       29.4670285224	        4.3956658060	       -0.8404053530	        0.2440067060	       19.9806189926	        0.5722333466	       11.4623588800	        0.6945257410	        0.7534530064	        1.0016702452	        2.7828143832	       -0.0187394565	        0.1758975201	       -0.1819488048	       -2.3591454204	        0.9524035564	       -0.0085714538	        2.3601628549	       -0.0642903161	        0.0147165258	       -0.1897395683	
        0.6450000000	      -69.0552891290	      -47.1126630262	       36.0015511923	      112.7163977493	     -307.8456342274	      -31.2072979330	     -158.6221826686	       -6.8360918585	       19.4629247636	       57.7057421872	      -86.1262078291	       40.1227205333	        0.1365647648	       71.4650792106	        2.8204635030	        3.3658203030	       29.0209581669	        4.1100835578	       -0.7112652652	        0.2232230983	       19.6234514963	        1.6499208748	       13.0937785485	        1.6031078341	        0.8899374691	        1.0659453217	        3.2364476086	       -0.0258949151	        0.1942897201	       -0.2195231401	       -1.7365330141	        0.9871389956	       -0.1305651971	        2.8254850168	       -0.0777065133	        0.0078939400	       -0.2341241963	
        0.6500000000	      -65.7160091967	      -26.8582949922	       36.7385117262	      105.0141129599	     -250.1662923108	      -62.7169871787	     -133.0876678449	       -8.0712707979	       19.9528184856	       85.6965576210	      -94.8372082249	       41.9378009573	        0.0915064334	       71.3611113047	        4.0479665608	        1.8449067319	       27.8449236418	        3.8661656647	       -0.5761381621	        0.2062116976	       24.1017895486	       -1.9681113547	       14.2004552587	        2.6983508738	        1.5588070943	        1.3392581459	        4.1891175713	       -0.0364341138	        0.2371314127	       -0.2990878348	       -0.8886991185	        0.8164443592	       -0.3920330967	        3.7219584616	       -0.1033921512	        0.0007943380	       -0.3214742793	
        0.6550000000	      -34.9524775386	       -5.9950481489	       43.3013186175	       78.5804548286	     -122.7457889190	     -118.2234923046	     -108.6545599943	      -19.6701991677	       30.5274121822	      108.0414681023	     -107.2819609208	       46.7236764653	        0.0571588712	       71.9875116438	        5.5899826347	        0.1534019989	       25.9923065066	        3.6589599946	       -0.4342651524	        0.1928295630	       35.6280382699	      -15.0891967462	       15.0646341565	        4.0418952355	        2.7692341742	        1.8176375871	        5.5449208205	       -0.0488141503	        0.3032055787	       -0.4120385631	        0.1939583307	        0.2116409931	       -0.8249949754	        4.9631544104	       -0.1407987646	       -0.0108254021	       -0.4451398013	
        0.6600000000	        1.2947555395	        2.2916044961	       52.6188443981	       42.0219217083	       20.3878370539	     -176.3803917564	      -96.0622217859	      -32.5610335341	       44.7504385496	      117.3368329333	     -123.5796318449	       53.3810313585	        0.0356873455	       71.8377173631	        7.4003377170	       -1.6309885421	       23.5563825193	        3.4566481654	       -0.2887670805	        0.1820515628	       49.3362009597	      -31.3094384695	       16.0582190540	        5.5321445490	        4.2380489966	        2.4130557610	        7.0470555684	       -0.0602520317	        0.3819485057	       -0.5364841304	        1.3616103910	       -0.5835942275	       -1.3703084975	        6.3167149340	       -0.1837833593	       -0.0293266666	       -0.5825658550	
        0.6650000000	       35.5980210626	        1.2168911970	       62.6063534245	       -4.1166295636	      155.7165429682	     -226.9077110272	      -94.3657284901	      -43.9888093726	       58.5462434035	      116.9730465065	     -143.2474449587	       60.6290148522	        0.0244632045	       70.2240837096	        9.0745682845	       -3.2444028130	       20.5680207919	        3.2276437241	       -0.1517448525	        0.1716960646	       63.7717477331	      -48.3554669338	       17.3154033221	        6.9795519716	        5.7944712015	        3.0719662924	        8.4865550678	       -0.0684200385	        0.4653984594	       -0.6545671775	        2.4271995982	       -1.4953408473	       -1.9750358722	        7.5956616419	       -0.2270089752	       -0.0545558961	       -0.7153031916	
